<svg xmlns="http://www.w3.org/2000/svg" xmlns:xlink="http://www.w3.org/1999/xlink" width="512"
  zoomAndPan="magnify" viewBox="0 0 384 383.999986" height="512" preserveAspectRatio="xMidYMid meet"
  version="1.0">
  <defs>
    <clipPath id="2b1bf49bb1">
      <path d="M 9.726562 106 L 374.226562 106 L 374.226562 272 L 9.726562 272 Z M 9.726562 106 "
        clip-rule="nonzero" />
    </clipPath>
  </defs>
  <g clip-path="url(#2b1bf49bb1)">
    <path fill="#0b83ff"
      d="M 36.058594 106.886719 C 86.695312 106.886719 107.601562 108.25 163.304688 192.582031 C 163.304688 192.582031 193.339844 233.363281 229.792969 231.289062 C 229.792969 231.289062 254.785156 236.800781 277.039062 184.292969 C 299.316406 131.761719 317.539062 102.730469 374.246094 110.332031 C 374.246094 110.332031 347.921875 133.824219 344.203125 143.847656 C 340.492188 153.875 280.195312 228.519531 247.234375 233.699219 C 252.070312 235.082031 258.832031 236.800781 270.277344 234.726562 C 270.277344 234.726562 282.089844 235.433594 283.953125 241.296875 C 272.316406 240.269531 233.839844 252.019531 225.746094 258.246094 C 217.65625 264.488281 189.894531 281.097656 167.648438 264.152344 C 172.402344 263.433594 199.050781 258.410156 211.378906 246.25 C 190.640625 246.496094 156.226562 239.578125 130.554688 215.046875 C 104.925781 190.507812 42.804688 116.546875 9.726562 111.023438 L 36.058594 106.886719 "
      fill-opacity="1" fill-rule="nonzero" />
  </g>
</svg>